<?xml version="1.0" encoding="utf-8"?>
<!-- Generator: Adobe Illustrator 25.4.1, SVG Export Plug-In . SVG Version: 6.00 Build 0)  -->
<svg version="1.1" id="Layer_1" xmlns="http://www.w3.org/2000/svg" xmlns:xlink="http://www.w3.org/1999/xlink" x="0px" y="0px"
	 viewBox="0 0 696 503.89" style="enable-background:new 0 0 696 503.89;" xml:space="preserve">
<style type="text/css">
	.st0{clip-path:url(#SVGID_00000108283129840234401050000013054742891948406674_);}
	.st1{clip-path:url(#SVGID_00000160873458419644581790000005512371303103414701_);}
	.st2{fill:#191D36;}
	.st3{fill:#0B0E21;}
	.st4{fill:#16171B;}
	.st5{fill:#EBEDF4;}
	.st6{filter:url(#Adobe_OpacityMaskFilter);}
	.st7{fill-rule:evenodd;clip-rule:evenodd;fill:#FFFFFF;}
	.st8{mask:url(#b_00000155838492948321064540000008441585624170556321_);}
	.st9{fill-rule:evenodd;clip-rule:evenodd;fill:#B1B4C7;}
	.st10{fill-rule:evenodd;clip-rule:evenodd;fill:#D4D7E6;}
	.st11{filter:url(#Adobe_OpacityMaskFilter_00000115479377984981319620000011253029231707123631_);}
	.st12{mask:url(#d_00000082345859069603357100000010724723760313595039_);}
	.st13{fill-rule:evenodd;clip-rule:evenodd;fill:#FF5E5E;}
	.st14{fill-rule:evenodd;clip-rule:evenodd;fill:#BC4747;}
	.st15{fill-rule:evenodd;clip-rule:evenodd;fill:#CBCEDC;}
	.st16{fill-rule:evenodd;clip-rule:evenodd;fill:#8C90A3;}
	.st17{filter:url(#Adobe_OpacityMaskFilter_00000049210129729225572530000004854380416731216258_);}
	.st18{mask:url(#b_00000046327133827948418720000016970679163175635076_);}
	.st19{fill-rule:evenodd;clip-rule:evenodd;fill:#353740;}
	.st20{fill-rule:evenodd;clip-rule:evenodd;fill:#4A4E5D;}
	.st21{fill-rule:evenodd;clip-rule:evenodd;fill:#7B7F90;}
	.st22{opacity:0.098;}
	.st23{fill:#4A5166;}
	.st24{filter:url(#Adobe_OpacityMaskFilter_00000118381066315815509440000007954799629879945366_);}
	.st25{mask:url(#f_00000149366726030452234650000000672712385505589134_);fill:#2E334F;}
	.st26{fill:#2E334F;}
	.st27{fill:#242942;}
	.st28{filter:url(#Adobe_OpacityMaskFilter_00000166651157304681459630000014327017596919302037_);}
	.st29{mask:url(#j_00000044885472718702671220000015514112944641685177_);}
	.st30{filter:url(#Adobe_OpacityMaskFilter_00000064326276263166486310000005948894123453599367_);}
	.st31{mask:url(#l_00000119827870939581353700000007596931401211586196_);}
	.st32{clip-path:url(#SVGID_00000108283129840234401050000013054742891948406674_);fill:#232941;}
	.st33{clip-path:url(#SVGID_00000108283129840234401050000013054742891948406674_);fill:#FFFFFF;}
	.st34{clip-path:url(#SVGID_00000108283129840234401050000013054742891948406674_);fill:#1A1C28;}
	.st35{clip-path:url(#SVGID_00000108283129840234401050000013054742891948406674_);fill:#2D3250;}
</style>
<g>
	<defs>
		<rect id="SVGID_1_" x="1" width="696" height="503.89"/>
	</defs>
	<clipPath id="SVGID_00000031912634419653557400000003682708153120962709_">
		<use xlink:href="#SVGID_1_"  style="overflow:visible;"/>
	</clipPath>
	<g style="clip-path:url(#SVGID_00000031912634419653557400000003682708153120962709_);">
		<defs>
			<rect id="SVGID_00000063611001780032430550000005976567232486950815_" x="1" width="696" height="464"/>
		</defs>
		<clipPath id="SVGID_00000177477171953310724370000012654329123189038508_">
			<use xlink:href="#SVGID_00000063611001780032430550000005976567232486950815_"  style="overflow:visible;"/>
		</clipPath>
		<g style="clip-path:url(#SVGID_00000177477171953310724370000012654329123189038508_);">
			<g transform="translate(184 9)">
				<path class="st2" d="M94,0h611c6.63,0,12,5.37,12,12v410c0,6.63-5.37,12-12,12H94c-6.63,0-12-5.37-12-12V12
					C82,5.37,87.37,0,94,0z"/>
				<path class="st3" d="M95,3h609c5.52,0,10,4.48,10,10v408c0,5.52-4.48,10-10,10H95c-5.52,0-10-4.48-10-10V13
					C85,7.48,89.48,3,95,3z"/>
				<path class="st4" d="M103,16h593c2.76,0,5,2.24,5,5v392c0,2.76-2.24,5-5,5H103c-2.76,0-5-2.24-5-5V21C98,18.24,100.24,16,103,16
					z"/>
				<g transform="translate(100 18)">
					<g>
						<path id="a_00000114073031363348456520000018199452194360808094_" class="st5" d="M4,0h591.55c1.66,0,3,1.34,3,3v390.86
							c0,1.66-1.34,3-3,3H4c-1.66,0-3-1.34-3-3V3C1,1.34,2.34,0,4,0z"/>
					</g>
					<defs>
						<filter id="Adobe_OpacityMaskFilter" filterUnits="userSpaceOnUse" x="97" y="14" width="364" height="320">
							<feColorMatrix  type="matrix" values="1 0 0 0 0  0 1 0 0 0  0 0 1 0 0  0 0 0 1 0"/>
						</filter>
					</defs>
					
						<mask maskUnits="userSpaceOnUse" x="97" y="14" width="364" height="320" id="b_00000155838492948321064540000008441585624170556321_">
						<g class="st6">
							<path id="a_00000037668643517814628170000008246540476219123370_" class="st7" d="M4,0h591.55c1.66,0,3,1.34,3,3v390.86
								c0,1.66-1.34,3-3,3H4c-1.66,0-3-1.34-3-3V3C1,1.34,2.34,0,4,0z"/>
						</g>
					</mask>
					<g class="st8">
						<g transform="translate(129 14)">
							<g transform="translate(0 75)">
								<path class="st7" d="M6,0h321c2.76,0,5,2.24,5,5v37c0,2.76-2.24,5-5,5H6c-2.76,0-5-2.24-5-5V5C1,2.24,3.24,0,6,0z"/>
								<g transform="translate(16 18)">
									<path class="st9" d="M3.5,0h48C52.88,0,54,1.12,54,2.5l0,0C54,3.88,52.88,5,51.5,5h-48C2.12,5,1,3.88,1,2.5l0,0
										C1,1.12,2.12,0,3.5,0z"/>
									<path class="st10" d="M3.5,9h29c1.38,0,2.5,1.12,2.5,2.5l0,0c0,1.38-1.12,2.5-2.5,2.5h-29C2.12,14,1,12.88,1,11.5l0,0
										C1,10.12,2.12,9,3.5,9z"/>
									<g transform="translate(75)">
										<path class="st9" d="M3.5,0h48C52.88,0,54,1.12,54,2.5l0,0C54,3.88,52.88,5,51.5,5h-48C2.12,5,1,3.88,1,2.5l0,0
											C1,1.12,2.12,0,3.5,0z"/>
										<path class="st10" d="M3.5,9h29c1.38,0,2.5,1.12,2.5,2.5l0,0c0,1.38-1.12,2.5-2.5,2.5h-29C2.12,14,1,12.88,1,11.5l0,0
											C1,10.12,2.12,9,3.5,9z"/>
									</g>
									<g transform="translate(177)">
										<path class="st9" d="M3.5,0h48C52.88,0,54,1.12,54,2.5l0,0C54,3.88,52.88,5,51.5,5h-48C2.12,5,1,3.88,1,2.5l0,0
											C1,1.12,2.12,0,3.5,0z"/>
										<path class="st10" d="M3.5,9h29c1.38,0,2.5,1.12,2.5,2.5l0,0c0,1.38-1.12,2.5-2.5,2.5h-29C2.12,14,1,12.88,1,11.5l0,0
											C1,10.12,2.12,9,3.5,9z"/>
									</g>
									<g transform="translate(250)">
										<path class="st9" d="M3.5,0h48C52.88,0,54,1.12,54,2.5l0,0C54,3.88,52.88,5,51.5,5h-48C2.12,5,1,3.88,1,2.5l0,0
											C1,1.12,2.12,0,3.5,0z"/>
										<path class="st10" d="M3.5,9h29c1.38,0,2.5,1.12,2.5,2.5l0,0c0,1.38-1.12,2.5-2.5,2.5h-29C2.12,14,1,12.88,1,11.5l0,0
											C1,10.12,2.12,9,3.5,9z"/>
									</g>
								</g>
							</g>
							<g transform="translate(0 136)">
								<g>
									<path id="c_00000085226446888850080590000016855780582677183927_" class="st7" d="M6,0h321c2.76,0,5,2.24,5,5v174
										c0,2.76-2.24,5-5,5H6c-2.76,0-5-2.24-5-5V5C1,2.24,3.24,0,6,0z"/>
								</g>
								<defs>
									
										<filter id="Adobe_OpacityMaskFilter_00000004511757273865856120000013182918107872078010_" filterUnits="userSpaceOnUse" x="-32" y="32" width="329" height="120">
										<feColorMatrix  type="matrix" values="1 0 0 0 0  0 1 0 0 0  0 0 1 0 0  0 0 0 1 0"/>
									</filter>
								</defs>
								
									<mask maskUnits="userSpaceOnUse" x="-32" y="32" width="329" height="120" id="d_00000082345859069603357100000010724723760313595039_">
									<g style="filter:url(#Adobe_OpacityMaskFilter_00000004511757273865856120000013182918107872078010_);">
										<path id="c_00000176750098500330400300000014928339637067881399_" class="st7" d="M6,0h321c2.76,0,5,2.24,5,5v174
											c0,2.76-2.24,5-5,5H6c-2.76,0-5-2.24-5-5V5C1,2.24,3.24,0,6,0z"/>
									</g>
								</mask>
								<g class="st12">
									<g transform="translate(-33 32)">
										<path class="st13" d="M30,0h160c6.63,0,12,5.37,12,12l0,0c0,6.63-5.37,12-12,12H30c-6.63,0-12-5.37-12-12l0,0
											C18,5.37,23.37,0,30,0z"/>
										<path class="st13" d="M30,96h160c6.63,0,12,5.37,12,12l0,0c0,6.63-5.37,12-12,12H30c-6.63,0-12-5.37-12-12l0,0
											C18,101.37,23.37,96,30,96z"/>
										<path class="st14" d="M222,0L222,0c6.63,0,12,5.37,12,12l0,0c0,6.63-5.37,12-12,12l0,0c-6.63,0-12-5.37-12-12l0,0
											C210,5.37,215.37,0,222,0z"/>
										<path class="st13" d="M222,32h64c6.63,0,12,5.37,12,12l0,0c0,6.63-5.37,12-12,12h-64c-6.63,0-12-5.37-12-12l0,0
											C210,37.37,215.37,32,222,32z"/>
										<path class="st14" d="M100,31.55h90c6.63,0,12,5.37,12,12l0,0c0,6.63-5.37,12-12,12h-90c-6.63,0-12-5.37-12-12l0,0
											C88,36.92,93.37,31.55,100,31.55z"/>
										<path class="st13" d="M260,64.53h26c6.63,0,12,5.37,12,12l0,0c0,6.63-5.37,12-12,12h-26c-6.63,0-12-5.37-12-12l0,0
											C248,69.9,253.37,64.53,260,64.53z"/>
										<path class="st13" d="M13,63.92h55c6.63,0,12,5.37,12,12l0,0c0,6.63-5.37,12-12,12H13c-6.63,0-12-5.37-12-12l0,0
											C1,69.3,6.37,63.92,13,63.92z"/>
										<path class="st14" d="M318,32L318,32c6.63,0,12,5.37,12,12l0,0c0,6.63-5.37,12-12,12l0,0c-6.63,0-12-5.37-12-12l0,0
											C306,37.37,311.37,32,318,32z"/>
									</g>
								</g>
							</g>
							<path class="st15" d="M3.5,0h72C76.88,0,78,1.12,78,2.5l0,0C78,3.88,76.88,5,75.5,5h-72C2.12,5,1,3.88,1,2.5l0,0
								C1,1.12,2.12,0,3.5,0z"/>
							<g transform="translate(0 26)">
								<path class="st16" d="M10.5,0h47C62.75,0,67,4.25,67,9.5l0,0c0,5.25-4.25,9.5-9.5,9.5h-47C5.25,19,1,14.75,1,9.5l0,0
									C1,4.25,5.25,0,10.5,0z"/>
								<path class="st16" d="M86.5,0.29h12c5.25,0,9.5,4.25,9.5,9.5l0,0c0,5.25-4.25,9.5-9.5,9.5h-12c-5.25,0-9.5-4.25-9.5-9.5l0,0
									C77,4.54,81.25,0.29,86.5,0.29z"/>
								<path class="st16" d="M125.5,0h12c5.25,0,9.5,4.25,9.5,9.5l0,0c0,5.25-4.25,9.5-9.5,9.5h-12c-5.25,0-9.5-4.25-9.5-9.5l0,0
									C116,4.25,120.25,0,125.5,0z"/>
							</g>
						</g>
					</g>
					<defs>
						
							<filter id="Adobe_OpacityMaskFilter_00000055695785276854550740000016879616739385163919_" filterUnits="userSpaceOnUse" x="1" y="0" width="107" height="397">
							<feColorMatrix  type="matrix" values="1 0 0 0 0  0 1 0 0 0  0 0 1 0 0  0 0 0 1 0"/>
						</filter>
					</defs>
					
						<mask maskUnits="userSpaceOnUse" x="1" y="0" width="107" height="397" id="b_00000046327133827948418720000016970679163175635076_">
						<g style="filter:url(#Adobe_OpacityMaskFilter_00000055695785276854550740000016879616739385163919_);">
							<path id="a_00000059999599420424098520000006331212926857577612_" class="st7" d="M4,0h591.55c1.66,0,3,1.34,3,3v390.86
								c0,1.66-1.34,3-3,3H4c-1.66,0-3-1.34-3-3V3C1,1.34,2.34,0,4,0z"/>
						</g>
					</mask>
					<g class="st18">
						<path class="st19" d="M1,0h107v397H1V0z"/>
						<g transform="translate(15 12)">
							<path class="st20" d="M3.5,68h72c1.38,0,2.5,1.12,2.5,2.5l0,0c0,1.38-1.12,2.5-2.5,2.5h-72C2.12,73,1,71.88,1,70.5l0,0
								C1,69.12,2.12,68,3.5,68z"/>
							<path class="st20" d="M3.5,87h72c1.38,0,2.5,1.12,2.5,2.5l0,0c0,1.38-1.12,2.5-2.5,2.5h-72C2.12,92,1,90.88,1,89.5l0,0
								C1,88.12,2.12,87,3.5,87z"/>
							<path class="st20" d="M3.5,106h72c1.38,0,2.5,1.12,2.5,2.5l0,0c0,1.38-1.12,2.5-2.5,2.5h-72c-1.38,0-2.5-1.12-2.5-2.5l0,0
								C1,107.12,2.12,106,3.5,106z"/>
							<path class="st20" d="M3.5,125h72c1.38,0,2.5,1.12,2.5,2.5l0,0c0,1.38-1.12,2.5-2.5,2.5h-72c-1.38,0-2.5-1.12-2.5-2.5l0,0
								C1,126.12,2.12,125,3.5,125z"/>
							<path class="st20" d="M3.5,144h72c1.38,0,2.5,1.12,2.5,2.5l0,0c0,1.38-1.12,2.5-2.5,2.5h-72c-1.38,0-2.5-1.12-2.5-2.5l0,0
								C1,145.12,2.12,144,3.5,144z"/>
							<path class="st20" d="M3.5,366h72c1.38,0,2.5,1.12,2.5,2.5l0,0c0,1.38-1.12,2.5-2.5,2.5h-72c-1.38,0-2.5-1.12-2.5-2.5l0,0
								C1,367.12,2.12,366,3.5,366z"/>
							<g transform="translate(0 25)">
								<g transform="translate(24 2)">
									<path class="st21" d="M3.5,0h48C52.88,0,54,1.12,54,2.5l0,0C54,3.88,52.88,5,51.5,5h-48C2.12,5,1,3.88,1,2.5l0,0
										C1,1.12,2.12,0,3.5,0z"/>
									<path class="st20" d="M3.5,9h29c1.38,0,2.5,1.12,2.5,2.5l0,0c0,1.38-1.12,2.5-2.5,2.5h-29C2.12,14,1,12.88,1,11.5l0,0
										C1,10.12,2.12,9,3.5,9z"/>
								</g>
								<circle class="st13" cx="10" cy="9" r="9"/>
							</g>
							<path class="st16" d="M5.5,0h68C75.99,0,78,2.01,78,4.5l0,0C78,6.99,75.99,9,73.5,9h-68C3.01,9,1,6.99,1,4.5l0,0
								C1,2.01,3.01,0,5.5,0z"/>
						</g>
					</g>
				</g>
				<g transform="translate(387 8)" class="st22">
					<path class="st23" d="M3,0h11.64c1.1,0,2,0.9,2,2l0,0c0,1.1-0.9,2-2,2H3C1.9,4,1,3.1,1,2l0,0C1,0.9,1.9,0,3,0z"/>
					<path class="st23" d="M22.16,0L22.16,0C23.18,0,24,0.82,24,1.84v0.32C24,3.18,23.18,4,22.16,4l0,0c-1.02,0-1.84-0.82-1.84-1.84
						V1.84C20.32,0.82,21.14,0,22.16,0z"/>
				</g>
				<g transform="translate(0 430)">
					<g>
						<path id="e_00000040544536553424519110000014106720316647695803_" class="st23" d="M1,0"/>
					</g>
					<defs>
						
							<filter id="Adobe_OpacityMaskFilter_00000068673343479091378100000009467112059851639703_" filterUnits="userSpaceOnUse" x="325.47" y="-46.56" width="126.69" height="57.97">
							<feColorMatrix  type="matrix" values="1 0 0 0 0  0 1 0 0 0  0 0 1 0 0  0 0 0 1 0"/>
						</filter>
					</defs>
					
						<mask maskUnits="userSpaceOnUse" x="325.47" y="-46.56" width="126.69" height="57.97" id="f_00000149366726030452234650000000672712385505589134_">
						<g style="filter:url(#Adobe_OpacityMaskFilter_00000068673343479091378100000009467112059851639703_);">
							<path id="e_00000129915229791230939180000013773088069263811749_" class="st23" d="M1,0"/>
						</g>
					</mask>
					<path class="st25" d="M335.47-46.56h106.69c5.52,0,10,4.48,10,10V1.4c0,5.52-4.48,10-10,10H335.47c-5.52,0-10-4.48-10-10
						v-37.97C325.47-42.09,329.95-46.56,335.47-46.56z"/>
				</g>
				<path class="st26" d="M1,0"/>
			</g>
			<g transform="translate(44 9.21)">
				<g>
					<path id="h" d="M13,0h143c6.63,0,12,5.37,12,12v317c0,6.63-5.37,12-12,12H13c-6.63,0-12-5.37-12-12V12C1,5.37,6.37,0,13,0z"/>
				</g>
				<g>
					<path id="h_00000080201654335565069700000007370424612327130510_" class="st27" d="M13,0h143c6.63,0,12,5.37,12,12v317
						c0,6.63-5.37,12-12,12H13c-6.63,0-12-5.37-12-12V12C1,5.37,6.37,0,13,0z"/>
				</g>
			</g>
			<g transform="translate(50 15)">
				<g>
					<path id="i_00000145040779989828948340000011345241433381845643_" class="st5" d="M10,0h137c4.97,0,9,4.03,9,9v312
						c0,4.97-4.03,9-9,9H10c-4.97,0-9-4.03-9-9V9C1,4.03,5.03,0,10,0z"/>
				</g>
				<defs>
					
						<filter id="Adobe_OpacityMaskFilter_00000140726350640524008130000003986300034180029835_" filterUnits="userSpaceOnUse" x="-27" y="0" width="329" height="292">
						<feColorMatrix  type="matrix" values="1 0 0 0 0  0 1 0 0 0  0 0 1 0 0  0 0 0 1 0"/>
					</filter>
				</defs>
				
					<mask maskUnits="userSpaceOnUse" x="-27" y="0" width="329" height="292" id="j_00000044885472718702671220000015514112944641685177_">
					<g style="filter:url(#Adobe_OpacityMaskFilter_00000140726350640524008130000003986300034180029835_);">
						<path id="i_00000049918530320687085870000009652716522751850372_" class="st7" d="M10,0h137c4.97,0,9,4.03,9,9v312
							c0,4.97-4.03,9-9,9H10c-4.97,0-9-4.03-9-9V9C1,4.03,5.03,0,10,0z"/>
					</g>
				</mask>
				<g class="st29">
					<path class="st19" d="M1,0h155v77H1V0z"/>
					<g transform="translate(8 108)">
						<g>
							<path id="k_00000116225011859514202020000002261059382693486000_" class="st7" d="M6,0h130c2.76,0,5,2.24,5,5v174
								c0,2.76-2.24,5-5,5H6c-2.76,0-5-2.24-5-5V5C1,2.24,3.24,0,6,0z"/>
						</g>
						<defs>
							
								<filter id="Adobe_OpacityMaskFilter_00000030463886201038749460000016565905171363791012_" filterUnits="userSpaceOnUse" x="-35" y="32" width="329" height="120">
								<feColorMatrix  type="matrix" values="1 0 0 0 0  0 1 0 0 0  0 0 1 0 0  0 0 0 1 0"/>
							</filter>
						</defs>
						
							<mask maskUnits="userSpaceOnUse" x="-35" y="32" width="329" height="120" id="l_00000119827870939581353700000007596931401211586196_">
							<g style="filter:url(#Adobe_OpacityMaskFilter_00000030463886201038749460000016565905171363791012_);">
								<path id="k_00000067235833684531600490000013574978187109577110_" class="st7" d="M6,0h130c2.76,0,5,2.24,5,5v174
									c0,2.76-2.24,5-5,5H6c-2.76,0-5-2.24-5-5V5C1,2.24,3.24,0,6,0z"/>
							</g>
						</mask>
						<g class="st31">
							<g transform="matrix(-1 0 0 1 293 32)">
								<path class="st13" d="M28,0h160c6.63,0,12,5.37,12,12l0,0c0,6.63-5.37,12-12,12H28c-6.63,0-12-5.37-12-12l0,0
									C16,5.37,21.37,0,28,0z"/>
								<path class="st13" d="M28,96h160c6.63,0,12,5.37,12,12l0,0c0,6.63-5.37,12-12,12H28c-6.63,0-12-5.37-12-12l0,0
									C16,101.37,21.37,96,28,96z"/>
								<path class="st14" d="M220,0L220,0c6.63,0,12,5.37,12,12l0,0c0,6.63-5.37,12-12,12l0,0c-6.63,0-12-5.37-12-12l0,0
									C208,5.37,213.37,0,220,0z"/>
								<path class="st13" d="M220,32h64c6.63,0,12,5.37,12,12l0,0c0,6.63-5.37,12-12,12h-64c-6.63,0-12-5.37-12-12l0,0
									C208,37.37,213.37,32,220,32z"/>
								<path class="st14" d="M98,31.55h90c6.63,0,12,5.37,12,12l0,0c0,6.63-5.37,12-12,12H98c-6.63,0-12-5.37-12-12l0,0
									C86,36.92,91.37,31.55,98,31.55z"/>
								<path class="st13" d="M258,64.53h26c6.63,0,12,5.37,12,12l0,0c0,6.63-5.37,12-12,12h-26c-6.63,0-12-5.37-12-12l0,0
									C246,69.9,251.37,64.53,258,64.53z"/>
								<path class="st13" d="M11,63.92h55c6.63,0,12,5.37,12,12l0,0c0,6.63-5.37,12-12,12H11c-6.63,0-12-5.37-12-12l0,0
									C-1,69.3,4.37,63.92,11,63.92z"/>
								<path class="st14" d="M316,32L316,32c6.63,0,12,5.37,12,12l0,0c0,6.63-5.37,12-12,12l0,0c-6.63,0-12-5.37-12-12l0,0
									C304,37.37,309.37,32,316,32z"/>
							</g>
						</g>
					</g>
					<path class="st7" d="M14,52h130c2.76,0,5,2.24,5,5v37c0,2.76-2.24,5-5,5H14c-2.76,0-5-2.24-5-5V57C9,54.24,11.24,52,14,52z"/>
					<path class="st20" d="M40.5,21h72c1.38,0,2.5,1.12,2.5,2.5l0,0c0,1.38-1.12,2.5-2.5,2.5h-72c-1.38,0-2.5-1.12-2.5-2.5l0,0
						C38,22.12,39.12,21,40.5,21z"/>
				</g>
			</g>
			<g transform="translate(74 85)">
				<path class="st9" d="M3.5,0h97c1.38,0,2.5,1.12,2.5,2.5l0,0c0,1.38-1.12,2.5-2.5,2.5h-97C2.12,5,1,3.88,1,2.5l0,0
					C1,1.12,2.12,0,3.5,0z"/>
				<path class="st10" d="M3.5,9h60c1.38,0,2.5,1.12,2.5,2.5l0,0c0,1.38-1.12,2.5-2.5,2.5h-60C2.12,14,1,12.88,1,11.5l0,0
					C1,10.12,2.12,9,3.5,9z"/>
			</g>
		</g>
	</g>
	<path style="clip-path:url(#SVGID_00000031912634419653557400000003682708153120962709_);fill:#232941;" d="M698.55,462.16H168.71
		c-3.83,0-6.94-3.11-6.94-6.94V443.2c0-1.77,1.43-3.2,3.2-3.2h533.59V462.16z"/>
	
		<rect x="654.99" y="545.37" style="clip-path:url(#SVGID_00000031912634419653557400000003682708153120962709_);fill:#FFFFFF;" width="1.15" height="1.15"/>
	<path style="clip-path:url(#SVGID_00000031912634419653557400000003682708153120962709_);fill:#1A1C28;" d="M697.79,462.59H168.88
		c-3.46,0-6.26-2.8-6.26-6.26l0,0c0-0.04,0.03-0.07,0.07-0.07h535.11c0.04,0,0.07,0.03,0.07,0.07v6.19
		C697.87,462.56,697.83,462.59,697.79,462.59z"/>
	<path style="clip-path:url(#SVGID_00000031912634419653557400000003682708153120962709_);fill:#2D3250;" d="M595.96,449.76H489.94
		c-4.14,0-7.49-3.35-7.49-7.49V440h123.21v0.05C605.66,445.41,601.32,449.76,595.96,449.76z"/>
</g>
</svg>
